<?xml version="1.0"?>
<!DOCTYPE svg PUBLIC "-//W3C//DTD SVG 1.1//EN" "http://www.w3.org/Graphics/SVG/1.1/DTD/svg11.dtd">
<svg xmlns="http://www.w3.org/2000/svg" xmlns:xl="http://www.w3.org/1999/xlink" version="1.1" viewBox="55 40 429 316" width="429pt" height="316pt"><metadata xmlns:dc="http://purl.org/dc/elements/1.1/"><dc:date>2012-07-31 17:01Z</dc:date><!-- Produced by OmniGraffle Professional 4.2.3 --></metadata><defs><linearGradient x1="0" x2="1" id="Gradient" gradientUnits="userSpaceOnUse"><stop offset="0" stop-color="white"/><stop offset="1" stop-color="#4c4c4c"/></linearGradient><linearGradient id="Obj_Gradient" xl:href="#Gradient" gradientTransform="translate(348.89401 181.29961) rotate(-162.99999) scale(122.74208)"/></defs><g stroke="none" stroke-opacity="1" stroke-dasharray="none" fill="none" fill-opacity="1"><title>Arbeitsfläche 1</title><rect fill="white" width="571" height="822"/><g><title>Ebene 1</title><path d="M 99.31154 354.42773 C 76.93257 354.42908 56.7666 334.00766 56.767258 311.73541 C 56.76802 289.46436 56.73105 149.94762 56.730408 127.67579 C 56.73021 105.403404 76.86725 84.958214 99.24603 84.958893 C 121.62433 84.958893 119.40471 84.960327 141.7832 84.961807 C 164.16196 84.960327 161.97601 41.964447 184.35452 41.96605 C 206.73277 41.964188 275.33167 42.631271 297.71094 42.631348 C 320.08997 42.63118 317.78113 85.219093 340.15967 85.219727 C 362.53864 85.220505 416.9928 85.018463 439.37216 85.018463 C 461.7499 85.01909 481.91705 105.33042 481.91693 127.60246 C 481.91708 149.87445 481.79578 289.44312 481.79578 311.71387 C 481.79608 333.9867 461.76517 354.42447 439.38565 354.42368 C 417.00623 354.42368 121.690186 354.42908 99.31154 354.42773 Z" fill="black"/><path d="M 99.31154 354.42773 C 76.93257 354.42908 56.7666 334.00766 56.767258 311.73541 C 56.76802 289.46436 56.73105 149.94762 56.730408 127.67579 C 56.73021 105.403404 76.86725 84.958214 99.24603 84.958893 C 121.62433 84.958893 119.40471 84.960327 141.7832 84.961807 C 164.16196 84.960327 161.97601 41.964447 184.35452 41.96605 C 206.73277 41.964188 275.33167 42.631271 297.71094 42.631348 C 320.08997 42.63118 317.78113 85.219093 340.15967 85.219727 C 362.53864 85.220505 416.9928 85.018463 439.37216 85.018463 C 461.7499 85.01909 481.91705 105.33042 481.91693 127.60246 C 481.91708 149.87445 481.79578 289.44312 481.79578 311.71387 C 481.79608 333.9867 461.76517 354.42447 439.38565 354.42368 C 417.00623 354.42368 121.690186 354.42908 99.31154 354.42773 Z" stroke="black" stroke-linecap="round" stroke-linejoin="round" stroke-width=".25"/><circle cx="240.93135" cy="212.73994" r="99.212776" fill="white"/><circle cx="240.93135" cy="212.73994" r="99.212776" stroke="black" stroke-linecap="round" stroke-linejoin="round" stroke-width="1"/><path d="M 241.07275 212.56104 L 241.07275 114.151855 C 295.3422 114.151855 339.33643 158.21112 339.33643 212.56104 L 241.07275 212.56104" fill="url(#Obj_Gradient)"/><path d="M 240.9821 127.572266 L 248.0687 134.65883 L 240.9821 141.74539 L 233.89551 134.65883 Z" fill="#4c4c4c"/><path d="M 318.8366 205.48047 L 325.92322 212.56703 L 318.8366 219.6536 L 311.75 212.56703 Z" fill="#4c4c4c"/><path d="M 163.12468 205.62891 L 170.21127 212.71547 L 163.12468 219.80203 L 156.03809 212.71547 Z" fill="#4c4c4c"/><path d="M 241.01335 283.46289 L 248.09995 290.54944 L 241.01335 297.63599 L 233.92676 290.54944 Z" fill="#4c4c4c"/></g></g></svg>
